<svg id="Layer_1" data-name="Layer 1" xmlns="http://www.w3.org/2000/svg" xmlns:xlink="http://www.w3.org/1999/xlink" viewBox="0 0 489.03 204.09"><defs><linearGradient id="linear-gradient" x1="111.25" y1="204.09" x2="111.25" gradientUnits="userSpaceOnUse"><stop offset="0.12" stop-color="#d76289"/><stop offset="0.49" stop-color="#f9c2c6"/></linearGradient><linearGradient id="linear-gradient-2" x1="363.43" y1="159.96" x2="363.43" y2="47.43" gradientUnits="userSpaceOnUse"><stop offset="0.05" stop-color="#d76289"/><stop offset="0.39" stop-color="#f9c2c6"/></linearGradient><linearGradient id="linear-gradient-3" x1="114.87" y1="95.37" x2="114.87" y2="84.42" gradientUnits="userSpaceOnUse"><stop offset="0.17" stop-color="#d76289"/><stop offset="0.52" stop-color="#f9c2c6"/></linearGradient><linearGradient id="linear-gradient-4" x1="302.43" y1="101.94" x2="302.43" y2="90.95" gradientUnits="userSpaceOnUse"><stop offset="0.05" stop-color="#d76289"/><stop offset="0.52" stop-color="#f9c2c6"/></linearGradient></defs><path d="M0,105.1A56.16,56.16,0,0,1,4.88,84Q20.31,48,35.94,12.05A50.79,50.79,0,0,1,41.1,2.81,7.1,7.1,0,0,1,46.83,0a4.94,4.94,0,0,1,4.8,4.65,15.48,15.48,0,0,1-1.06,7c-3,8.22-6.47,16-9.85,24.06C33.4,53.16,25.93,70.58,18.57,88.05c-1.66,4-3.19,8-3.27,12.38-.06,3.14,1.81,4.53,4.59,3.09a81.15,81.15,0,0,0,8.86-5.73c4.15-2.93,8.07-6.15,12.32-8.93a18.59,18.59,0,0,1,7.07-3c6.4-1,11.5,1.58,15.16,6.89a22,22,0,0,1,3.57,11.39c.41,6.48.31,13,.79,19.47a71.15,71.15,0,0,0,2,12.85c2.21,8.24,9,10.23,15.3,4.37a118.73,118.73,0,0,0,10.7-12.11c3.89-4.79,7.45-9.85,11.27-14.69a17.72,17.72,0,0,1,3.76-3.47c2.71-1.87,5.38-1.29,7,1.56a66.54,66.54,0,0,1,3.17,6.72c1.3,3,2.52,6,3.79,9,.42,1,.89,1.91,1.38,2.83,3.07,5.57,6.75,7,12.29,4a140,140,0,0,0,14.81-9.92c8.41-6.15,16.6-12.59,26-17.29,6-3,12.27-5,19.17-4.81,11.6.29,21.25,8,23.48,19.32,2,10.27-.1,19.66-7,27.62-5.36,6.15-12.36,8.72-20.46,7.84-5.51-.61-11-1.68-16.5-2.25-8.27-.85-13.61,1.2-17.72,9.1-2.9,5.57-5.49,11.3-8.19,17-3.13,6.57-5.5,11.48-8.56,18.09a9.33,9.33,0,0,1-3.95,4.48,5.64,5.64,0,0,1-6.07-1.47,7.13,7.13,0,0,1-.91-7.8c2.83-6.53,5.79-13,8.69-19.48,2.56-5.73,5.14-11.47,7.63-17.23,4.33-10.05,11.9-15.28,22.84-15,6.31.14,12.61,1,18.91,1.46,4.29.34,8.58.84,12.44-1.87a13.91,13.91,0,0,0,4.55-16.26c-2.36-5.68-8.58-7.78-14-7-7.47,1-13.87,4.66-20.07,8.57-8.58,5.42-16.9,11.24-25.45,16.7a110.11,110.11,0,0,1-12.29,6.74c-7.52,3.58-15.37.77-19.31-6.25-1-1.83-2-3.69-3-5.5-2-3.35-4.06-3.75-6.9-1.07-2.11,2-4,4.26-5.92,6.44-4.89,5.54-10.34,10.25-17.76,12.08a27.63,27.63,0,0,1-14.52-.32c-6.67-1.93-10.54-6.7-12.82-13a55.75,55.75,0,0,1-3-16c-.31-5.93-.4-11.9-.73-17.83a14.25,14.25,0,0,0-1.07-4.46,3.51,3.51,0,0,0-4.83-2.2,45.5,45.5,0,0,0-7,3.67c-5.26,3.34-10.31,7-15.64,10.21a17.63,17.63,0,0,1-14.14,2c-5.17-1.38-7.7-4.83-8.55-9.81-.27-1.51-.33-3-.42-4" fill="url(#linear-gradient)"/><path d="M476.9,147.65c2.64.38,4.24,1.52,4.38,3.19.21,2.14-1.36,4.41-4.28,5a49,49,0,0,1-8.92,1c-7.27.2-14.55.14-21.82,0a15.1,15.1,0,0,1-9.19-3.3c-6.54-5.13-6.28-12.44-1.21-18.61,3.83-4.62,9.11-6.6,14.86-7.53,6-1,11.93-1.93,17.89-3a15.44,15.44,0,0,0,3.87-1.39,4.7,4.7,0,0,0,2.55-5,4.33,4.33,0,0,0-3.21-3.83,15.23,15.23,0,0,0-10.19-.21c-7.43,2.36-14.12,6.13-20.65,10.31-13.93,8.92-27.81,17.92-41.77,26.75a45.32,45.32,0,0,1-14.86,6.27,18.91,18.91,0,0,1-8.5,0c-7-1.72-10.91-6.61-11-13.78-.07-5.25,1.41-10.11,3.4-14.88a51.87,51.87,0,0,0,2.29-6.36c1.15-4.18-1.4-6.78-5.51-5.43a27.81,27.81,0,0,0-7.78,3.89c-9.09,6.72-18,13.67-27,20.57-4.28,3.29-8.41,6.83-13.52,8.82a21.53,21.53,0,0,1-5.27,1.31c-3.64.47-6.58-1.06-8.87-3.82a55.7,55.7,0,0,1-3.77-5.21c-2.74-4.24-6-5.5-10.39-3a118.81,118.81,0,0,0-12.85,8.65c-5.38,4-10.79,7.85-17.12,10.21-3.4,1.28-6.9,2-10.51,1.32A12.59,12.59,0,0,1,238,148.49c-.82-7.1,1.07-13.71,3.68-20.09,5.1-12.5,10.49-24.88,15.8-37.29,4.28-10,8.54-20,13-29.86A58.42,58.42,0,0,1,275.78,52a12.7,12.7,0,0,1,4.53-4.19c2.25-1,4.35-.2,5.06,2.17a11.9,11.9,0,0,1-.6,7.62C282.4,64.34,280,71,277.28,77.58c-7.68,18.79-15.49,37.49-23.19,56.25a36.53,36.53,0,0,0-2,6.47c-.82,3.89,1.75,6.26,5.48,4.88a22,22,0,0,0,5.93-3.48c7.26-5.77,14.37-11.72,21.59-17.51a85.76,85.76,0,0,1,8.52-6.25c4-2.51,7-1.81,9.54,2.24,2,3.15,3.54,6.6,5.41,9.83a22.7,22.7,0,0,0,3,4.14c1.79,1.92,4.06,2.45,6.29,1.07a59.78,59.78,0,0,0,8.55-6.15c8.56-7.44,15.92-16,23.45-24.49a30.42,30.42,0,0,1,5.14-4.61c2.49-1.74,4.79-.92,5.65,2,.47,1.5,1.54,1.23,2.72.69a27.58,27.58,0,0,1,16.89-2.38c5.18.83,6.78,3.56,6.24,9.2-.76,7.8-3.7,15-6,22.43a50.15,50.15,0,0,0-1.64,6.06c-.81,4.07,1.33,6.3,5.41,5.77,3.79-.5,7.14-2.23,10.41-4.05,10.1-5.59,19.41-12.41,28.77-19.13,7.88-5.66,15.74-11.34,24.76-15.16,6.38-2.73,12.94-4.72,20-4.39a29.35,29.35,0,0,1,12.42,3c7.26,3.75,9,9.46,8.2,16.32C487.61,130.83,481,134.68,473,136c-4.44.72-9,.83-13.44,1.41a47.18,47.18,0,0,0-7,1.6,5.5,5.5,0,0,0-2.25,1.63c-1.82,2-1.52,4.15.92,5.24a17.51,17.51,0,0,0,5.66,1.15c3,.2,7.72,0,10.76,0a91.71,91.71,0,0,1,9.33.55" fill="url(#linear-gradient-2)"/><path d="M114.89,95.37c-3.51,0-6-2.23-6-5.39a6,6,0,0,1,12-.09c0,3.12-2.55,5.47-6,5.48" fill="url(#linear-gradient-3)"/><path d="M302.37,91c3.36,0,6.17,2.44,6.17,5.39s-2.91,5.58-6.1,5.6-6.09-2.55-6.13-5.52S299,91,302.37,91" fill="url(#linear-gradient-4)"/></svg>