<svg width="265" height="21" viewBox="0 0 265 21" fill="none" xmlns="http://www.w3.org/2000/svg">
<path d="M4 3.5567L12.0072 10.9009C19.5302 17.8011 31.0262 17.9806 38.761 11.3188V11.3188C46.3145 4.81311 57.5955 4.90299 65.149 11.4087V11.4087C72.8235 18.0185 84.2851 18.1098 91.9595 11.5V11.5C99.634 4.89016 110.99 4.89016 118.664 11.5V11.5V11.5C126.338 18.1098 137.8 18.0185 145.475 11.4086V11.4086C153.028 4.903 164.309 4.81305 171.862 11.3187L172.44 11.8164C179.846 18.1944 190.852 18.0224 198.054 11.4161V11.4161C205.178 4.88166 216.04 4.6332 223.455 10.835L224.605 11.7972C232.368 18.2894 243.657 18.3194 251.454 11.8685L261.5 3.5567" stroke="#FF7BE3" stroke-width="7" stroke-linecap="round"/>
</svg>
